<mxfile host="app.diagrams.net" agent="Mozilla/5.0 (Windows NT 10.0; Win64; x64) AppleWebKit/537.36 (KHTML, like Gecko) Chrome/131.0.0.0 Safari/537.36" version="26.0.3">
  <diagram name="Page-1" id="KcjhDnyls2Q4TWN9Yx2N">
    <mxGraphModel dx="913" dy="454" grid="1" gridSize="10" guides="1" tooltips="1" connect="1" arrows="1" fold="1" page="1" pageScale="1" pageWidth="850" pageHeight="1100" math="0" shadow="0">
      <root>
        <mxCell id="0" />
        <mxCell id="1" parent="0" />
        <mxCell id="-w0icGPB6T1Bg3YUQX7m-14" style="edgeStyle=orthogonalEdgeStyle;rounded=0;orthogonalLoop=1;jettySize=auto;html=1;" edge="1" parent="1" source="-w0icGPB6T1Bg3YUQX7m-9" target="-w0icGPB6T1Bg3YUQX7m-10">
          <mxGeometry relative="1" as="geometry" />
        </mxCell>
        <mxCell id="-w0icGPB6T1Bg3YUQX7m-9" value="WEB" style="ellipse;shape=cloud;whiteSpace=wrap;html=1;" vertex="1" parent="1">
          <mxGeometry x="30" y="50" width="120" height="80" as="geometry" />
        </mxCell>
        <mxCell id="-w0icGPB6T1Bg3YUQX7m-10" value="TV" style="rounded=1;whiteSpace=wrap;html=1;" vertex="1" parent="1">
          <mxGeometry x="220" y="65" width="100" height="50" as="geometry" />
        </mxCell>
        <mxCell id="-w0icGPB6T1Bg3YUQX7m-12" style="edgeStyle=orthogonalEdgeStyle;rounded=0;orthogonalLoop=1;jettySize=auto;html=1;" edge="1" parent="1" source="-w0icGPB6T1Bg3YUQX7m-11" target="-w0icGPB6T1Bg3YUQX7m-9">
          <mxGeometry relative="1" as="geometry" />
        </mxCell>
        <mxCell id="-w0icGPB6T1Bg3YUQX7m-11" value="LAPTOP" style="ellipse;whiteSpace=wrap;html=1;aspect=fixed;" vertex="1" parent="1">
          <mxGeometry x="50" y="170" width="80" height="80" as="geometry" />
        </mxCell>
        <mxCell id="-w0icGPB6T1Bg3YUQX7m-17" style="edgeStyle=orthogonalEdgeStyle;rounded=0;orthogonalLoop=1;jettySize=auto;html=1;entryX=0.007;entryY=0.597;entryDx=0;entryDy=0;entryPerimeter=0;" edge="1" parent="1" source="-w0icGPB6T1Bg3YUQX7m-10">
          <mxGeometry relative="1" as="geometry">
            <mxPoint x="380.84000000000015" y="90.82000000000005" as="targetPoint" />
            <Array as="points">
              <mxPoint x="350" y="90" />
            </Array>
          </mxGeometry>
        </mxCell>
        <mxCell id="-w0icGPB6T1Bg3YUQX7m-18" value="&lt;ol&gt;&lt;li&gt;Berita Hari ini.&lt;/li&gt;&lt;li&gt;Pengeluaran.&lt;/li&gt;&lt;li&gt;Struktur.&lt;/li&gt;&lt;li&gt;&lt;br&gt;&lt;/li&gt;&lt;/ol&gt;" style="shape=internalStorage;whiteSpace=wrap;html=1;backgroundOutline=1;align=left;" vertex="1" parent="1">
          <mxGeometry x="380" y="40" width="170" height="150" as="geometry" />
        </mxCell>
        <mxCell id="-w0icGPB6T1Bg3YUQX7m-19" value="Setting berita hari ini berupa gambar yang mau ditampilin gambar atau vidio" style="rounded=1;whiteSpace=wrap;html=1;" vertex="1" parent="1">
          <mxGeometry x="200" y="250" width="170" height="60" as="geometry" />
        </mxCell>
        <mxCell id="-w0icGPB6T1Bg3YUQX7m-20" value="Pengeluaran itu metode input dan tampilannya gimana ?" style="rounded=1;whiteSpace=wrap;html=1;" vertex="1" parent="1">
          <mxGeometry x="200" y="320" width="170" height="60" as="geometry" />
        </mxCell>
        <mxCell id="-w0icGPB6T1Bg3YUQX7m-23" value="" style="group" vertex="1" connectable="0" parent="1">
          <mxGeometry x="460" y="230" width="270" height="200" as="geometry" />
        </mxCell>
        <mxCell id="-w0icGPB6T1Bg3YUQX7m-21" value="" style="sketch=0;pointerEvents=1;shadow=0;dashed=0;html=1;strokeColor=none;fillColor=#505050;labelPosition=center;verticalLabelPosition=bottom;verticalAlign=top;outlineConnect=0;align=center;shape=mxgraph.office.devices.tv;" vertex="1" parent="-w0icGPB6T1Bg3YUQX7m-23">
          <mxGeometry width="270" height="200" as="geometry" />
        </mxCell>
        <mxCell id="-w0icGPB6T1Bg3YUQX7m-22" value="Content A" style="rounded=1;whiteSpace=wrap;html=1;" vertex="1" parent="-w0icGPB6T1Bg3YUQX7m-23">
          <mxGeometry x="30" y="30" width="210" height="100" as="geometry" />
        </mxCell>
        <mxCell id="-w0icGPB6T1Bg3YUQX7m-29" value="TV 1 lt 2" style="text;html=1;align=center;verticalAlign=middle;resizable=0;points=[];autosize=1;strokeColor=none;fillColor=none;" vertex="1" parent="-w0icGPB6T1Bg3YUQX7m-23">
          <mxGeometry x="30" y="30" width="70" height="30" as="geometry" />
        </mxCell>
        <mxCell id="-w0icGPB6T1Bg3YUQX7m-24" value="Struktur gimana ?" style="rounded=1;whiteSpace=wrap;html=1;" vertex="1" parent="1">
          <mxGeometry x="200" y="390" width="170" height="60" as="geometry" />
        </mxCell>
        <mxCell id="-w0icGPB6T1Bg3YUQX7m-25" value="TVnya mau dipisah contentnya ?&amp;nbsp;" style="rounded=1;whiteSpace=wrap;html=1;" vertex="1" parent="1">
          <mxGeometry x="200" y="460" width="170" height="60" as="geometry" />
        </mxCell>
        <mxCell id="-w0icGPB6T1Bg3YUQX7m-26" value="" style="group" vertex="1" connectable="0" parent="1">
          <mxGeometry x="450" y="460" width="270" height="200" as="geometry" />
        </mxCell>
        <mxCell id="-w0icGPB6T1Bg3YUQX7m-27" value="" style="sketch=0;pointerEvents=1;shadow=0;dashed=0;html=1;strokeColor=none;fillColor=#505050;labelPosition=center;verticalLabelPosition=bottom;verticalAlign=top;outlineConnect=0;align=center;shape=mxgraph.office.devices.tv;" vertex="1" parent="-w0icGPB6T1Bg3YUQX7m-26">
          <mxGeometry width="270" height="200" as="geometry" />
        </mxCell>
        <mxCell id="-w0icGPB6T1Bg3YUQX7m-28" value="Content B" style="rounded=1;whiteSpace=wrap;html=1;" vertex="1" parent="-w0icGPB6T1Bg3YUQX7m-26">
          <mxGeometry x="30" y="30" width="210" height="100" as="geometry" />
        </mxCell>
        <mxCell id="-w0icGPB6T1Bg3YUQX7m-30" value="TV 1 lt 1" style="text;html=1;align=center;verticalAlign=middle;resizable=0;points=[];autosize=1;strokeColor=none;fillColor=none;" vertex="1" parent="-w0icGPB6T1Bg3YUQX7m-26">
          <mxGeometry x="30" y="40" width="70" height="30" as="geometry" />
        </mxCell>
      </root>
    </mxGraphModel>
  </diagram>
</mxfile>
